<?xml version="1.0" encoding="UTF-8" standalone="no"?>
<svg
   xmlns:dc="http://purl.org/dc/elements/1.1/"
   xmlns:cc="http://creativecommons.org/ns#"
   xmlns:rdf="http://www.w3.org/1999/02/22-rdf-syntax-ns#"
   xmlns:svg="http://www.w3.org/2000/svg"
   xmlns="http://www.w3.org/2000/svg"
   xmlns:xlink="http://www.w3.org/1999/xlink"
   xmlns:sodipodi="http://sodipodi.sourceforge.net/DTD/sodipodi-0.dtd"
   xmlns:inkscape="http://www.inkscape.org/namespaces/inkscape"
   version="1.1"
   id="svg11066"
   viewBox="0 0 80 48"
   height="48"
   width="80"
   inkscape:version="0.91 r13725"
   sodipodi:docname="crafter-logo.svg">
  <sodipodi:namedview
     pagecolor="#ffffff"
     bordercolor="#666666"
     borderopacity="1"
     objecttolerance="10"
     gridtolerance="10"
     guidetolerance="10"
     inkscape:pageopacity="0"
     inkscape:pageshadow="2"
     inkscape:window-width="1598"
     inkscape:window-height="873"
     id="namedview52"
     showgrid="false"
     inkscape:showpageshadow="false"
     inkscape:zoom="7.375"
     inkscape:cx="43.715909"
     inkscape:cy="25.331465"
     inkscape:window-x="0"
     inkscape:window-y="0"
     inkscape:window-maximized="1"
     inkscape:current-layer="svg11066" />
  <defs
     id="defs11068">
    <radialGradient
       xlink:href="#linearGradient9057"
       id="radialGradient9203"
       gradientUnits="userSpaceOnUse"
       gradientTransform="matrix(1.0519536,0.04556678,-0.17665816,4.2881696,-45.027007,1023.5091)"
       cx="-183.08759"
       cy="-305.77841"
       fx="-183.08759"
       fy="-305.77841"
       r="87.169868" />
    <linearGradient
       id="linearGradient9057">
      <stop
         id="stop9059"
         offset="0"
         style="stop-color:#c8c8c8;stop-opacity:1" />
      <stop
         id="stop9061"
         offset="1"
         style="stop-color:#989898;stop-opacity:1" />
    </linearGradient>
    <radialGradient
       xlink:href="#linearGradient7192"
       id="radialGradient9205"
       gradientUnits="userSpaceOnUse"
       gradientTransform="matrix(1.437828,0.00612936,-0.03655263,8.5745115,67.610085,2017.4716)"
       cx="-179.49774"
       cy="-265.9599"
       fx="-179.49774"
       fy="-265.9599"
       r="15.354116" />
    <linearGradient
       id="linearGradient7192">
      <stop
         id="stop7194"
         offset="0"
         style="stop-color:#6b6b6b;stop-opacity:0.96335077" />
      <stop
         id="stop7196"
         offset="1"
         style="stop-color:#5c5c5c;stop-opacity:0.04313726" />
    </linearGradient>
    <filter
       style="color-interpolation-filters:sRGB"
       id="filter7178"
       x="-0.011675091"
       width="1.0233502"
       y="-0.001337469"
       height="1.0026749">
      <feGaussianBlur
         stdDeviation="0.14597536"
         id="feGaussianBlur7180" />
    </filter>
    <radialGradient
       xlink:href="#linearGradient7192"
       id="radialGradient9207"
       gradientUnits="userSpaceOnUse"
       gradientTransform="matrix(1,0,0,0.13141531,0,-323.60062)"
       cx="-261.505"
       cy="-372.56082"
       fx="-261.505"
       fy="-372.56082"
       r="66.253052" />
    <radialGradient
       xlink:href="#linearGradient10819"
       id="radialGradient9227"
       gradientUnits="userSpaceOnUse"
       gradientTransform="matrix(1.9455547,-2.3951026,2.9042815,2.5662693,786.71925,810.12577)"
       cx="142.71059"
       cy="-321.43121"
       fx="142.71059"
       fy="-321.43121"
       r="70" />
    <linearGradient
       id="linearGradient10819">
      <stop
         id="stop10821"
         offset="0"
         style="stop-color:#d3b763;stop-opacity:0.96470588" />
      <stop
         id="stop10823"
         offset="1"
         style="stop-color:#ebe59d;stop-opacity:1" />
    </linearGradient>
    <linearGradient
       xlink:href="#linearGradient5280"
       id="linearGradient9229"
       gradientUnits="userSpaceOnUse"
       x1="205"
       y1="-277.63779"
       x2="205"
       y2="-297.63779" />
    <linearGradient
       id="linearGradient5280">
      <stop
         style="stop-color:#a6a6a6;stop-opacity:0.7647059"
         offset="0"
         id="stop5282" />
      <stop
         style="stop-color:#e2e2e2;stop-opacity:0.82745099"
         offset="1"
         id="stop5284" />
    </linearGradient>
  </defs>
  <metadata
     id="metadata11071">
    <rdf:RDF>
      <cc:Work
         rdf:about="">
        <dc:format>image/svg+xml</dc:format>
        <dc:type
           rdf:resource="http://purl.org/dc/dcmitype/StillImage" />
        <dc:title></dc:title>
      </cc:Work>
    </rdf:RDF>
  </metadata>
  <g
     transform="translate(0,-1004.3622)"
     id="layer1" />
  <g
     id="layer2"
     transform="matrix(1.7305835,0,0,1.699407,-1.6440482,-1722.0689)">
    <g
       style="display:inline"
       id="g10767"
       transform="matrix(0.06226889,0,0,0.06389301,2.4404605,1001.0608)">
      <g
         id="g9173"
         transform="matrix(0,-1.8119524,1.8119524,0,-388.70835,1070.7441)">
        <g
           id="g9175"
           transform="matrix(0.87811843,0,0,0.87811843,467.10746,676.07793)">
          <g
             id="g9177">
            <g
               id="g9179"
               transform="matrix(0.70772072,0,0,0.74617195,-281.12918,-204.82633)">
              <g
                 transform="matrix(0.87625038,0,0,1,358.14917,-244.65895)"
                 id="g9181"
                 style="fill:#000000;fill-opacity:1;stroke:none;stroke-opacity:1">
                <g
                   id="g9183"
                   style="fill:#000000;fill-opacity:1;stroke:none;stroke-opacity:1">
                  <g
                     id="g9185" />
                </g>
              </g>
              <g
                 style="fill:#5a5a5a;fill-opacity:0;fill-rule:evenodd;stroke:#000000;stroke-opacity:1"
                 transform="translate(254.91199,-304.05592)"
                 id="g9187">
                <g
                   style="fill:#5a5a5a;fill-opacity:0;fill-rule:evenodd;stroke:#000000;stroke-opacity:1"
                   id="g9189" />
              </g>
            </g>
          </g>
        </g>
        <g
           id="flowRoot9195"
           style="font-style:normal;font-variant:normal;font-weight:normal;font-stretch:normal;font-size:40px;line-height:125%;font-family:mono;-inkscape-font-specification:mono;letter-spacing:0px;word-spacing:0px;fill:#b2b2b2;fill-opacity:1;stroke:none;stroke-width:1px;stroke-linecap:butt;stroke-linejoin:miter;stroke-opacity:1"
           transform="matrix(0,1.5769906,-1.5475481,0,-271.21482,855.89228)">
          <g
             id="g12136">
            <g
               id="g12149">
              <g
                 id="g12153">
                <path
                   transform="matrix(0,-0.5684636,0.55094692,0,-114.28881,-477.27946)"
                   id="path9191"
                   style="display:inline;fill:url(#radialGradient9203);fill-opacity:1;fill-rule:evenodd;stroke:none;stroke-width:0.87357581;stroke-linejoin:round;stroke-miterlimit:4;stroke-dasharray:none;stroke-opacity:1"
                   d="m -165.59661,-103.4933 a 15.442784,15.442784 0 0 1 -15.44279,15.442781 15.442784,15.442784 0 0 1 -15.44278,-15.442781 15.442784,15.442784 0 0 1 15.44278,-15.44279 15.442784,15.442784 0 0 1 15.44279,15.44279 z m -14.5831,-334.20456 c -3.05506,0 -6.1102,1.47882 -6.12263,4.4351 l 0,16.63842 c 0.0248,5.87686 12.22039,5.87686 12.24525,0 l 0,-16.63842 c -0.0125,-2.95628 -3.06755,-4.4351 -6.12262,-4.4351 z m 46.96373,0 c -3.05506,0 -6.1102,1.47882 -6.12262,4.4351 l 0,16.63842 c 0.0248,5.87686 12.22039,5.87686 12.24523,0 l 0,-16.63842 c -0.0123,-2.95628 -3.06755,-4.4351 -6.12261,-4.4351 z m -23.33728,0.0893 c -3.05505,0 -6.1102,1.47882 -6.12261,4.43509 l 0,16.63842 c 0.0248,5.87686 12.22039,5.87686 12.24525,0 l 0,-16.63842 c -0.0124,-2.95627 -3.06757,-4.43509 -6.12264,-4.43509 z m 0.62423,-102.96548 0,94.00455 -51.3239,0 c -0.007,-26.38937 -0.22076,-52.77843 -0.36229,-79.16735 -27.57901,16.35332 -46.05139,43.61773 -45.96172,86.76023 0.11679,56.19555 43.47688,18.88632 43.29477,82.3121 l -0.70914,246.98145 c -0.12854,44.770119 58.95913,44.770305 58.91335,0 l -0.25275,-247.12499 c -0.0649,-63.41395 43.66555,-33.36881 44.0318,-81.83883 0.35391,-46.83694 -19.09463,-86.86158 -47.63012,-101.92716 z"
                   inkscape:connector-curvature="0" />
                <path
                   id="path9193"
                   d="m -195.75751,-383.53272 c -0.25,-14.85914 30.5,-15.91496 30,0 l 0,240.5 c 0,13.15623 -30,13.24233 -30,0 z"
                   style="display:inline;fill:#909090;fill-opacity:1;fill-rule:evenodd;stroke:url(#radialGradient9205);stroke-width:2;stroke-linejoin:round;stroke-miterlimit:4;stroke-dasharray:none;stroke-opacity:1;filter:url(#filter7178)"
                   transform="matrix(0,-0.5684636,0.55094692,0,-114.28881,-477.27946)"
                   inkscape:connector-curvature="0" />
              </g>
            </g>
            <path
               d="m -215.674,-372.88808 c -0.40315,-4.15582 5.77423,-6.66028 8.08893,-2.97866 1.70573,2.55867 0.219,3.94976 -2.30308,3.33238 -1.40113,0 -2.80226,0 -4.20339,0 -0.14351,4.13072 5.01178,2.61763 6.53142,2.89214 -0.8017,2.16763 -5.90925,1.97072 -7.28539,-0.44406 -0.58649,-0.80836 -0.83806,-1.81234 -0.82849,-2.8018 z m 7.29772,-0.74467 c 0.76579,-4.66088 -7.38469,-2.31625 -5.0714,0 1.69047,0 3.38093,0 5.0714,0 z m -18.62797,0.74467 c -0.65107,-4.20867 5.09801,-5.57992 6.83622,-4.03445 -0.0714,-1.57083 -0.0304,-3.14353 -0.0411,-4.71537 2.02933,-0.63711 1.49294,1.2915 1.52656,2.6501 0,3.53498 0,7.06997 0,10.60495 -2.03098,0.74097 -0.75353,-2.74064 -2.79244,-0.18617 -2.9706,1.5934 -5.83622,-1.34271 -5.52924,-4.31906 z m 1.58241,-0.0186 c -1.04717,4.13673 6.00604,4.5238 5.21266,0.55779 0.36368,-2.06219 -0.1628,-4.61079 -2.96005,-3.95532 -1.50347,0.34493 -2.28938,1.95984 -2.25261,3.39753 z m -12.74512,0.0186 c -0.58257,-5.06457 7.56884,-6.64968 8.72655,-1.55682 1.92751,4.69063 -5.05436,8.86358 -7.93999,4.37724 -0.56641,-0.82352 -0.79215,-1.83169 -0.78656,-2.82042 z m 1.58242,0 c -0.24614,6.04496 8.48179,2.73185 5.31505,-2.0199 -1.53432,-2.95175 -5.77964,-1.05449 -5.31505,2.0199 z m -12.63343,-1.60103 c -0.44123,-3.73211 3.22605,-7.44106 6.97309,-6.07834 2.81097,0.68308 1.16877,3.32761 -0.78306,1.18682 -4.57037,-0.77308 -5.77364,5.59072 -3.54647,8.50315 1.60404,3.14361 4.82807,-0.36201 6.15319,0.64326 -0.49559,2.74641 -6.16726,2.75238 -7.60529,-0.0138 -0.8593,-1.23261 -1.20098,-2.75513 -1.19146,-4.2411 z m -19.71909,-1.69411 c -1.08146,0.086 -3.46101,0.23966 -2.32978,-1.16212 1.52925,0.10277 2.94556,0.0874 2.52807,-1.8462 0.26665,-1.89213 2.05603,-0.20484 1.32828,1.21669 0.16064,1.19862 2.48466,0.23384 3.53346,0.54429 1.92129,-0.21071 0.65712,2.09313 -0.85082,1.24732 -1.19263,0.14327 -3.3273,-0.6555 -2.68264,1.32505 0.21071,1.77026 -0.67683,4.24908 1.19146,5.30247 1.52948,-0.23824 5.5635,0.0932 2.25261,1.22869 -3.61275,1.34009 -5.61015,-2.23135 -4.97064,-5.34112 0,-0.83834 0,-1.67679 0,-2.51507 z m -4.59103,-4.00258 c -2.13805,-2.36266 -6.39203,2.22151 -3.51016,2.75524 1.07392,0.26562 3.46552,-0.78643 2.91442,1.10421 -0.97879,0.33484 -2.58027,0.047 -3.79779,0.14311 0,2.60012 0,5.20025 0,7.80037 -2.02499,0.63897 -1.46442,-1.30761 -1.50795,-2.6501 0,-1.71676 0,-3.43351 0,-5.15027 -1.08613,0.0794 -3.49688,0.2465 -2.36701,-1.16218 2.88932,0.7194 2.26215,-1.53095 3.24199,-3.51062 0.7036,-1.23129 6.58279,-1.74564 5.0265,0.67024 z m -20.06146,9.45725 c -0.59529,-4.37445 9.58399,-1.7726 5.24989,-5.47329 -1.35027,-0.7187 -6.24906,1.84812 -4.07705,-0.59573 3.08828,-2.18119 7.88069,-0.1355 6.90678,3.97117 0,1.48118 0,2.96237 0,4.44355 -1.95799,0.74433 -0.75857,-2.54271 -2.67271,-0.42935 -1.82312,1.19459 -5.39292,0.80963 -5.40691,-1.91635 z m 1.48933,-0.1117 c 0.96193,3.04533 6.27103,0.91511 5.06372,-2.09668 -1.27558,-0.12436 -4.8182,-0.002 -5.06372,2.09668 z m -11.44196,-6.59029 c 2.3529,-1.21946 0.489,3.94324 2.2387,1.15888 1.00982,-2.77554 7.34588,-0.56791 3.86761,0.0698 -2.75752,-0.6235 -5.20275,2.06522 -4.5797,4.72162 -0.33779,0.98912 0.82406,3.47787 -0.88337,3.09734 -1.34953,-0.0427 -0.32256,-2.46187 -0.64319,-3.53346 -3e-5,-1.83806 7e-5,-3.67627 -5e-5,-5.51422 z m -12.65204,2.94143 c -0.44123,-3.73211 3.22605,-7.44106 6.97309,-6.07834 2.81096,0.68308 1.16877,3.3276 -0.78306,1.18682 -4.57037,-0.77308 -5.77364,5.59072 -3.54647,8.50315 1.60404,3.14361 4.82807,-0.36201 6.15319,0.64326 -0.49559,2.74641 -6.16726,2.75238 -7.60529,-0.0138 -0.8591,-1.23202 -1.20114,-2.75574 -1.19146,-4.2411 z"
               style="font-style:normal;font-variant:normal;font-weight:normal;font-stretch:normal;font-size:18.61663437px;font-family:'Sauce Code Pro Plus Nerd File Types';-inkscape-font-specification:'Sauce Code Pro Plus Nerd File Types';text-align:center;text-anchor:middle;fill:#c2c2c2;fill-opacity:1"
               id="path12124"
               inkscape:connector-curvature="0" />
          </g>
        </g>
      </g>
      <g
         id="g9209"
         transform="matrix(0,-1.6482871,1.5746466,0,840.72758,534.98222)">
        <path
           d="m 150.03259,-514.29718 c 0,8.52506 -6.91093,15.43599 -15.43599,15.43599 -8.52506,0 -15.43598,-6.91093 -15.43598,-15.43599 0,-8.52506 6.91092,-15.43599 15.43598,-15.43599 8.52506,0 15.43599,6.91093 15.43599,15.43599 z m -75.711306,432.345673 116.249996,-0.75 12.25,-190.250003 c -18.88695,-11.67102 -36.28647,-23.33001 -47.87868,-51.41421 -13.82969,-54.69676 -0.24412,-94.34315 3.63604,-155.75736 4.41772,-89.16114 -51.6284,-89.73649 -48.68629,2.12132 4.80613,59.29289 11.43245,93.5034 -0.6066,154.34314 -7.87824,26.68655 -25.458176,40.89948 -46.464466,50.70711 z"
           style="opacity:1;fill:url(#radialGradient9227);fill-opacity:1;fill-rule:evenodd;stroke:none;stroke-width:1.81914866;stroke-linejoin:round;stroke-miterlimit:4;stroke-dasharray:none;stroke-opacity:0.15706805"
           id="path9211"
           inkscape:connector-curvature="0" />
        <g
           transform="translate(-70.301516,68.928933)"
           id="g9213">
          <g
             id="g9215">
            <path
               id="path9217"
               d="m 133.24937,-341.85898 139.75,0.125 -4.375,69.625 -131.30469,-0.13281 z"
               style="fill:url(#linearGradient9229);fill-opacity:1;fill-rule:evenodd;stroke:none;stroke-width:1;stroke-linejoin:round;stroke-miterlimit:4;stroke-dasharray:none;stroke-opacity:1"
               inkscape:connector-curvature="0" />
            <path
               style="fill:#898989;fill-opacity:1;fill-rule:evenodd;stroke:none;stroke-width:1;stroke-linejoin:round;stroke-miterlimit:4;stroke-dasharray:none;stroke-opacity:1"
               d="m 133.81377,-330.92338 138.46685,0.0351 -0.92179,16.24836 -136.57001,-0.11919 z"
               id="path9219"
               inkscape:connector-curvature="0" />
            <path
               style="fill:#b38b5f;fill-opacity:1;fill-rule:evenodd;stroke:none;stroke-width:1;stroke-linejoin:round;stroke-miterlimit:4;stroke-dasharray:none;stroke-opacity:1"
               d="m 137.31524,-272.26421 131.38819,0.12444 -7.75908,120.53003 -116.3344,0.68658 z"
               id="path9221"
               inkscape:connector-curvature="0" />
          </g>
          <path
             style="fill:#7c6330;fill-opacity:1;fill-rule:evenodd;stroke:none;stroke-width:1px;stroke-linecap:butt;stroke-linejoin:miter;stroke-opacity:1"
             d="m 155.4186,-272.36288 10.04439,120.52224 -9.04751,-120.60118 z"
             id="path9223"
             inkscape:connector-curvature="0" />
          <path
             style="fill:#7c6330;fill-opacity:1;fill-rule:evenodd;stroke:none;stroke-width:1px;stroke-linecap:butt;stroke-linejoin:miter;stroke-opacity:1"
             d="m 227.67678,-272.28684 -0.4995,-0.0224 -4.5005,111.5224 5.4995,-111.4776 -0.4995,-0.0224 z"
             id="path9225"
             inkscape:connector-curvature="0" />
        </g>
      </g>
    </g>
  </g>
</svg>
